<?xml version="1.0" standalone="no"?>
<!DOCTYPE svg PUBLIC "-//W3C//DTD SVG 20010904//EN"
 "http://www.w3.org/TR/2001/REC-SVG-20010904/DTD/svg10.dtd">
<svg version="1.0" xmlns="http://www.w3.org/2000/svg"
 width="490.000000pt" height="507.000000pt" viewBox="0 0 490.000000 507.000000"
 preserveAspectRatio="xMidYMid meet">

<g transform="translate(0.000000,507.000000) scale(0.100000,-0.100000)"
fill="#000000" stroke="none">
<path d="M1838 5059 c-25 -4 -54 -12 -65 -17 -35 -19 -91 -90 -102 -129 -6
-21 -11 -129 -11 -240 l0 -203 -144 0 -144 0 -3 78 c-3 60 -9 84 -26 108 -40
56 -72 64 -255 64 -145 0 -167 -2 -196 -20 -53 -32 -72 -74 -72 -157 l0 -72
-277 -3 c-267 -3 -280 -4 -325 -26 -104 -52 -181 -166 -199 -299 -10 -74 -16
-52 322 -1301 l92 -342 -48 -108 c-27 -59 -124 -269 -217 -466 l-168 -359 0
-657 c0 -731 -1 -720 67 -799 18 -22 59 -52 91 -68 l57 -28 2235 0 2235 0 50
23 c63 29 100 64 133 127 l27 50 3 676 3 675 -62 130 c-34 71 -85 181 -114
244 -29 63 -99 214 -155 335 -59 128 -100 228 -97 240 2 11 45 171 95 355 50
184 143 531 207 770 l117 435 -11 70 c-14 82 -55 176 -100 228 -18 20 -58 49
-89 64 -55 27 -62 28 -248 31 l-191 3 -5 75 c-6 83 -21 113 -78 152 -31 21
-43 22 -197 22 -184 0 -216 -8 -256 -64 -17 -24 -23 -48 -26 -108 l-3 -78
-144 0 -144 0 0 203 c0 111 -5 219 -11 240 -13 47 -61 102 -111 128 -37 19
-63 20 -717 22 -373 1 -698 -1 -723 -4z m1408 -85 c18 -9 43 -31 54 -49 18
-30 20 -49 20 -244 l0 -211 -55 0 -55 0 0 138 c0 119 -3 141 -20 170 -42 69
-129 91 -203 52 -35 -19 -56 -20 -457 -20 -401 0 -423 1 -460 20 -52 27 -108
26 -151 -3 -58 -38 -69 -74 -69 -224 l0 -133 -55 0 -55 0 0 213 c0 189 2 215
19 243 40 66 13 64 769 64 608 0 688 -2 718 -16z m-1199 -220 c18 -11 105 -14
477 -14 448 0 456 0 497 22 38 19 44 20 68 7 43 -25 51 -53 49 -179 l-3 -115
-602 -3 -603 -2 0 134 c0 134 0 135 27 155 27 22 49 21 90 -5z m-783 -126 c21
-20 26 -33 27 -88 l3 -65 -202 -3 -202 -2 0 61 c0 54 3 64 29 90 l29 29 146 0
c136 0 146 -1 170 -22z m2859 10 c37 -19 46 -41 47 -105 l0 -63 -200 0 -200 0
0 61 c0 68 11 96 43 109 33 13 284 12 310 -2z m673 -625 c-2 -10 -36 -137 -75
-283 -39 -146 -126 -472 -194 -725 l-124 -460 -1616 -3 -1617 -2 0 314 0 314
30 12 c40 17 126 102 150 151 33 64 53 156 46 213 -9 65 -44 152 -82 200 -44
56 -141 118 -178 114 l-31 -3 -3 -155 -2 -155 -46 -24 -46 -25 -44 24 -44 25
0 145 c0 153 -5 170 -44 170 -33 0 -118 -54 -160 -100 -21 -24 -50 -68 -65
-99 -22 -48 -26 -69 -26 -151 0 -82 4 -103 27 -152 31 -68 96 -140 155 -175
l43 -25 0 -309 0 -309 -174 0 -175 0 -15 53 c-8 28 -85 315 -171 637 -86 322
-169 630 -185 685 -15 55 -25 103 -23 108 2 4 1059 7 2349 7 2229 0 2345 -1
2340 -17z m-3871 -562 l80 -44 83 44 82 44 0 132 c0 82 4 133 10 133 19 0 87
-77 111 -126 34 -69 34 -179 0 -248 -31 -63 -86 -118 -151 -151 l-50 -25 0
-70 0 -70 -80 0 -80 0 0 44 c0 86 -8 101 -62 127 -62 29 -131 104 -152 166
-38 111 -12 227 68 307 l51 51 5 -135 5 -134 80 -45z m165 -826 l0 -366 -81 3
-81 3 -1 363 -2 362 83 0 82 0 0 -365z m-240 -260 l0 -104 -92 -3 -93 -3 0
-30 0 -30 285 -6 c234 -5 289 -4 308 8 45 27 20 63 -45 63 l-43 0 0 103 0 102
1609 0 c1061 0 1613 -3 1619 -10 5 -5 63 -125 127 -265 65 -140 149 -322 186
-404 38 -81 69 -152 69 -157 0 -5 -63 -9 -141 -9 -129 0 -141 1 -135 17 4 9 9
35 12 58 7 51 -27 121 -75 152 -33 23 -39 23 -336 23 -257 0 -304 -2 -308 -15
-5 -12 -70 -15 -447 -17 l-442 -3 -24 -28 c-31 -36 -32 -86 -1 -115 12 -11 51
-32 87 -46 l65 -25 -314 0 c-294 -1 -313 0 -306 17 12 27 18 108 11 137 -4 14
-21 34 -39 45 -28 17 -51 20 -178 20 l-145 0 -49 -35 -49 -34 -17 28 c-20 34
-50 40 -211 47 -143 7 -148 2 -148 -131 l0 -95 -739 0 -740 0 14 33 c8 17 95
205 193 417 l180 385 39 6 c21 3 100 7 176 8 l137 1 0 -105z m3534 -575 c32
-12 61 -69 52 -103 -14 -57 -15 -57 -302 -57 l-264 0 0 36 c0 32 1 34 16 20
13 -14 50 -16 250 -16 l234 0 12 25 c8 19 8 28 -2 40 -19 23 -471 22 -494 -1
-15 -14 -16 -12 -16 25 l0 41 244 0 c135 0 256 -4 270 -10z m-2586 -92 l-3
-73 -59 -3 c-32 -2 -63 1 -68 6 -6 6 -7 37 -3 76 l7 66 65 0 64 0 -3 -72z m79
15 c-3 -10 -5 -2 -5 17 0 19 2 27 5 18 2 -10 2 -26 0 -35z m471 10 l3 -33 -58
0 c-51 0 -64 -4 -93 -30 -34 -28 -38 -29 -142 -30 l-108 0 0 35 c0 33 2 35 33
35 24 0 41 9 62 30 l29 31 136 -3 135 -3 3 -32z m1132 -30 l0 -68 -103 -3
-102 -3 -165 59 c-90 33 -166 65 -168 71 -3 8 75 11 267 11 l271 0 0 -67z
m310 -3 l0 -70 -115 0 -115 0 0 70 0 70 115 0 115 0 0 -70z m-1833 -397 c1
-74 19 -101 54 -82 16 8 19 22 19 79 l0 70 65 0 65 0 0 -70 c0 -55 3 -71 17
-79 11 -6 24 -6 35 0 15 8 18 23 18 79 l0 70 60 0 60 0 0 -59 c0 -74 23 -111
58 -92 19 10 22 20 22 81 l0 70 60 0 60 0 0 -64 c0 -62 14 -96 40 -96 26 0 40
34 40 96 l0 64 60 0 60 0 0 -59 c0 -74 23 -111 58 -92 19 10 22 20 22 81 l0
70 79 0 c74 0 81 -2 100 -26 18 -23 21 -41 21 -115 l0 -89 -630 0 -630 0 0 93
c0 128 7 137 109 137 l78 0 0 -67z m-797 -68 l0 -75 -135 0 -135 0 0 75 0 75
135 0 135 0 0 -75z m2530 -331 l0 -256 -29 -29 c-46 -46 -106 -37 -136 21 -12
24 -15 75 -15 275 l0 245 90 0 90 0 0 -256z m525 3 c0 -182 -3 -258 -12 -274
-18 -31 -73 -47 -107 -31 -52 23 -56 45 -56 313 l0 245 88 0 87 0 0 -253z
m-2995 103 l0 -70 -190 0 -190 0 0 70 0 70 190 0 190 0 0 -70z m1810 -138 c0
-154 -3 -192 -16 -210 l-15 -22 -596 0 c-541 0 -598 2 -615 17 -16 14 -18 35
-18 210 l0 193 630 0 630 0 0 -188z"/>
<path d="M2062 3898 c-9 -9 -12 -82 -12 -269 0 -220 -2 -258 -16 -269 -8 -8
-14 -25 -12 -39 2 -21 9 -27 36 -29 l32 -3 0 -134 c0 -127 -1 -136 -25 -171
-67 -98 5 -234 124 -234 73 0 151 76 151 149 0 32 -31 104 -50 116 -6 4 -10
58 -10 134 l0 127 32 9 c37 11 47 38 25 63 -12 14 -16 70 -22 276 -3 142 -9
265 -12 272 -7 19 -223 20 -241 2z m172 -140 c3 -46 7 -154 10 -240 l5 -158
-64 0 -65 0 0 88 c0 49 3 157 7 240 l6 152 48 0 47 0 6 -82z m-26 -627 c2
-146 2 -150 27 -175 47 -47 19 -126 -45 -126 -66 0 -95 83 -45 130 24 23 25
27 25 172 0 136 1 148 18 148 17 0 19 -12 20 -149z"/>
<path d="M1660 3879 c-49 -15 -85 -44 -120 -95 l-31 -44 21 -59 c12 -33 35
-72 51 -87 28 -26 29 -32 29 -115 0 -84 -1 -87 -25 -93 -24 -6 -25 -8 -25
-101 0 -92 1 -96 25 -107 24 -11 25 -14 25 -113 0 -65 4 -105 12 -113 7 -7 43
-12 93 -12 50 0 86 5 93 12 8 8 12 48 12 113 0 99 1 102 25 113 24 11 25 15
25 100 0 92 -8 112 -43 112 -19 0 -20 5 -14 87 5 73 10 90 31 112 26 27 66
111 66 138 0 30 -59 109 -98 131 -47 26 -106 34 -152 21z m105 -83 c58 -25 41
-35 -47 -29 -46 3 -85 7 -86 9 -8 6 54 33 76 34 12 0 38 -7 57 -14z m45 -126
c-6 -11 -24 -30 -40 -42 l-30 -22 0 -109 0 -108 -27 3 -28 3 0 102 -1 102 -37
37 c-20 21 -37 41 -37 46 0 4 47 8 105 8 102 0 105 -1 95 -20z m-13 -390 l0
-30 -79 0 -78 0 0 30 0 30 78 0 79 0 0 -30z m-57 -190 c0 -79 0 -80 -25 -80
-25 0 -25 1 -25 80 0 79 0 80 25 80 25 0 25 -1 25 -80z"/>
<path d="M3223 3783 c-4 -10 -6 -223 -3 -473 l5 -455 159 -3 c178 -3 176 -4
176 66 l0 42 381 0 c243 0 387 4 400 10 17 10 19 22 19 118 0 71 -4 112 -12
120 -9 9 -112 12 -400 12 l-388 0 0 80 0 80 409 0 c335 0 411 2 420 14 8 9 11
73 9 207 l-3 194 -582 3 c-547 2 -583 1 -590 -15z m257 -459 l0 -407 -52 7
c-29 3 -72 6 -95 6 l-43 0 0 400 0 400 95 0 95 0 0 -406z m180 354 c0 -29 3
-90 7 -135 l6 -83 -57 0 -56 0 0 135 0 135 50 0 50 0 0 -52z m180 -83 l0 -135
-50 0 -50 0 0 135 0 135 50 0 50 0 0 -135z m180 0 l0 -135 -50 0 -50 0 0 135
0 135 50 0 50 0 0 -135z m178 -2 l3 -133 -51 0 -50 0 0 136 0 135 48 -3 47 -3
3 -132z m130 0 l3 -133 -31 0 -30 0 0 136 0 135 28 -3 27 -3 3 -132z m-48
-503 l0 -50 -360 0 -360 0 0 50 0 50 360 0 360 0 0 -50z"/>
<path d="M3361 3086 c-7 -8 -11 -25 -9 -38 2 -18 9 -23 32 -23 36 0 56 27 40
53 -14 22 -48 27 -63 8z"/>
<path d="M2456 3772 c-2 -4 -6 -55 -7 -113 -4 -132 0 -139 82 -139 l59 0 0
-214 c0 -182 2 -217 16 -230 8 -9 21 -16 28 -16 6 0 60 39 119 88 l107 87 0
143 0 142 88 0 c55 0 92 4 100 12 16 16 16 220 0 236 -14 14 -583 18 -592 4z
m534 -122 l0 -50 -235 0 -235 0 0 50 0 50 235 0 235 0 0 -50z m-208 -251 l3
-121 -57 -50 -58 -50 0 171 0 171 54 0 55 0 3 -121z"/>
<path d="M2462 3008 c-8 -8 -12 -46 -12 -105 0 -82 2 -94 20 -103 12 -7 109
-9 272 -8 l253 3 3 99 c2 64 -1 103 -9 112 -16 19 -508 21 -527 2z m464 -103
l1 -35 -199 0 -198 0 0 35 0 35 198 0 197 0 1 -35z"/>
<path d="M1700 2420 c-117 -25 -225 -115 -218 -184 l3 -31 110 0 c97 0 112 -2
126 -19 13 -16 14 -26 7 -48 l-10 -28 -98 0 c-112 0 -130 -4 -130 -32 0 -52
49 -105 135 -145 52 -24 72 -28 155 -28 133 0 197 21 262 86 28 28 62 55 77
61 30 13 248 13 757 3 l341 -7 19 38 c25 53 26 165 0 221 -10 23 -24 44 -30
46 -11 4 -103 0 -611 -28 -159 -9 -336 -17 -391 -18 l-101 -2 -46 42 c-29 27
-64 47 -99 58 -66 20 -198 27 -258 15z m255 -97 c22 -12 49 -31 60 -43 31 -35
78 -50 160 -50 l75 0 0 -44 0 -43 -74 -6 c-85 -6 -144 -32 -176 -77 -40 -57
-91 -75 -210 -75 -88 0 -111 3 -145 21 l-40 22 70 7 c39 3 75 8 82 10 13 4 63
96 63 116 0 6 -15 35 -32 65 l-33 54 -84 0 c-79 0 -84 1 -69 16 9 9 40 25 70
36 72 26 224 21 283 -9z m1215 -62 c12 -24 13 -101 1 -119 -7 -11 -81 -13
-425 -6 l-416 7 0 43 0 43 43 5 c23 3 200 14 392 24 193 10 360 20 372 21 13
0 27 -7 33 -18z"/>
<path d="M3723 2333 c-8 -3 -13 -24 -13 -54 l0 -49 -170 0 c-161 0 -170 -1
-180 -21 -23 -42 -2 -48 179 -51 l166 -3 -3 -26 c-1 -15 2 -38 8 -53 l10 -26
258 0 c250 0 259 1 281 21 29 28 51 79 51 122 0 44 -39 119 -70 134 -18 9 -93
13 -265 12 -132 0 -246 -3 -252 -6z m387 -138 l0 -65 -165 0 -165 0 0 65 0 65
165 0 165 0 0 -65z m110 46 c21 -41 7 -111 -22 -111 -4 0 -8 29 -8 65 0 65 10
81 30 46z"/>
<path d="M586 2105 c-15 -16 -11 -44 8 -57 6 -4 50 -8 99 -8 l87 0 0 -45 0
-45 -145 0 -146 0 -24 -51 c-23 -51 -23 -51 -5 -103 10 -28 21 -59 25 -68 7
-17 33 -18 350 -18 l343 0 27 69 26 69 -23 48 -23 49 -163 3 -162 2 0 45 0 45
84 0 c64 0 88 4 100 16 19 18 19 20 6 45 -10 18 -23 19 -230 19 -183 0 -221
-3 -234 -15z m553 -257 c-2 -61 13 -59 -304 -59 l-290 0 -8 26 c-19 56 -24 55
303 55 l300 0 -1 -22z"/>
<path d="M2021 947 c-89 -31 -101 -161 -19 -203 66 -34 149 -4 167 62 26 93
-58 172 -148 141z m63 -83 c21 -21 20 -41 -3 -54 -11 -5 -22 -10 -25 -10 -8 0
-36 31 -36 40 0 5 7 16 16 24 8 9 19 16 24 16 5 0 16 -7 24 -16z"/>
<path d="M2704 946 c-45 -20 -74 -62 -74 -108 0 -32 7 -47 34 -74 29 -29 41
-34 81 -34 81 0 132 73 104 147 -24 62 -89 93 -145 69z m64 -78 c18 -18 14
-46 -9 -58 -26 -14 -49 3 -49 35 0 32 35 46 58 23z"/>
<path d="M2277 874 c-14 -14 -6 -54 12 -64 11 -5 62 -10 113 -10 105 0 132 11
126 51 -3 24 -4 24 -124 27 -66 1 -123 -1 -127 -4z"/>
</g>
</svg>
